<svg version="1.1"
     xmlns="http://www.w3.org/2000/svg"
     width="16" height="16"
     viewBox="0 0 192.397 192.398"
     >
    <g>
        <path d="M107.029,69.401c-13.4-12.128-28.08-27.52-44.146-36.132c-0.871-0.466-1.744-0.427-2.503-0.128
			c-1.01-0.623-2.365-0.632-3.443-0.097c-5.08,2.517-3.711,11.543-3.393,16.145c0.389,5.628,1.043,11.269,1.798,16.88
			c-4.112-0.724-8.832-0.381-11.933-0.392c-11.477-0.039-23.377,0.92-34.766,2.354c-3.223,0.406-3.269,4.688,0,5.048
			c2.886,0.318,5.804,0.448,8.732,0.513c0.042,0.158,0.113,0.315,0.254,0.464c19.987,21.149,44.249,38.113,65.736,57.73
			c-0.591,0.583-1.163,1.186-1.762,1.758c0.205-0.915-0.032-1.95-0.981-2.646C56.439,113.179,30.502,99.08,9.133,77.74
			c-0.433-2.062-1.139-3.925-2.4-5.275c-1.13-1.21-3.386-1.273-4.505,0c-3.917,4.456-1.569,12.117-1.124,17.559
			c0.79,9.685,1.538,19.369,1.23,29.092c-0.097,3.036,2.646,3.938,4.753,3.032c0.403,0.451,0.904,0.813,1.502,0.959
			c10.801,2.633,23.231,1.248,34.258,1.437c1.554,0.026,7.038,0.978,11.874,0.976c-0.16,3.026-0.112,6.109-0.031,9.188
			c-1.158-0.223-2.028,1.393-0.835,2.034c0.308,0.165,0.597,0.36,0.903,0.528c0.059,2.116,0.111,4.225,0.095,6.299
			c-0.033,4.466-1.245,9.734,0.494,13.947c1.456,3.527,6.759,2.512,6.696-0.613c26.584-12.401,42.706-38.68,63.393-58.346
			c1.376-1.307,1.546-2.875,1.038-4.223C131.251,88.488,109.262,71.422,107.029,69.401z M16.128,116.81
			c-2.172,0.033-4.343-0.078-6.513-0.039c0.308-3.004,0.426-6.021,0.475-9.037c0.706,0.668,1.423,1.326,2.1,2
			c1.77,1.763,3.512,3.555,5.248,5.351c0.485,0.501,0.994,1.099,1.522,1.688C18.017,116.79,17.073,116.794,16.128,116.81z
			 M23.746,116.715c-1.137-2.259-4.067-4.221-5.85-5.896c-2.321-2.178-4.624-4.418-7.121-6.398
			c-0.215-0.171-0.434-0.339-0.652-0.509c-0.025-2.456-0.158-4.91-0.267-7.365c6.602,7.64,14.697,13.992,22.813,20.06
			C29.693,116.638,26.72,116.671,23.746,116.715z M38.71,116.458c-10.219-7.56-20.552-14.591-29.004-24.161
			c-0.125-2.929,0.162-6.798-0.04-10.485c11.633,12.981,25.552,24.036,40.055,34.184C45.651,115.943,41.508,116.282,38.71,116.458z
			 M62.42,148.269c-0.164-1.612-0.364-3.205-0.445-4.701c-0.036-0.67-0.053-1.409-0.078-2.112c0.101,0.063,0.207,0.116,0.307,0.18
			c1.721,1.085,3.385,2.368,5.087,3.576C65.709,146.279,64.091,147.304,62.42,148.269z M70.097,143.214
			c-1.746-1.201-3.636-2.242-5.399-3.286c-0.958-0.567-1.941-1.092-2.917-1.63c-0.137-4.521-0.347-9.346-1.557-13.49
			c0.543-0.187,1.001-0.43,1.397-0.711c5.553,3.711,11.107,7.357,16.557,10.98c0.484,0.32,0.941,0.395,1.373,0.372
			C76.542,138.209,73.396,140.802,70.097,143.214z M86.43,128.728c-20.145-20.349-44.792-36.067-66.177-55.107
			c4.811,0.024,9.629-0.067,14.412-0.053c8.407,9.429,18.035,17.701,27.634,25.884c9.338,7.962,18.506,17.409,28.733,24.255
			C89.503,125.386,88,127.096,86.43,128.728z M93.478,121.035c-7.754-9.36-19.166-16.633-28.541-24.225
			c-9.112-7.379-17.832-15.086-26.253-23.215c4.494,0.153,9.528,1.134,14.344,1.529c11.995,16.077,28.91,29.307,46.156,39.383
			C97.29,116.693,95.396,118.877,93.478,121.035z M102.239,111.001c-16.562-10.273-32.082-21.392-45.164-35.735
			c1.281-0.017,2.54-0.083,3.738-0.285c2.089-0.351,2.767-2.989,1.883-4.628c-0.374-0.693-0.867-1.271-1.428-1.78
			c0.084-1.331,0.124-2.665,0.147-4.001c7.215,8.36,15.006,16.119,23.399,23.344c6.798,5.851,14.729,12.94,23.265,16.451
			C106.118,106.562,104.172,108.773,102.239,111.001z M84.696,82.95c-8.33-6.745-16.069-14.23-23.275-22.162
			c-0.029-2.855-0.104-5.709-0.134-8.553c8.334,7.554,17.454,14.301,26.215,21.319c9.491,7.602,17.631,16.328,26.555,24.431
			c-1.078,1.132-2.198,2.211-3.258,3.367C102.652,94.679,92.941,89.626,84.696,82.95z M116.817,95.13
			c-5.334-7.981-13.81-14.184-21.275-19.92C84.185,66.482,72.5,58.257,61.376,49.231c0.22-2.579,0.754-5.546,0.93-8.361
			c10.052,9.469,20.846,18.26,30.986,27.628c6.417,5.927,12.894,11.783,19.163,17.868c1.938,1.881,3.86,3.77,5.716,5.731
			c0.28,0.295,0.533,0.578,0.768,0.842C118.209,93.644,117.534,94.412,116.817,95.13z"/>
        <path d="M188.827,96.429c1.631-14.496,6.981-34.544,0.288-48.371c-0.628-1.297-1.912-1.724-3.154-1.569
			c1.196-1.268,1.007-3.357-0.118-4.681c-3.102-3.651-11.04-3.308-15.475-3.657c-6.927-0.546-14.13-1.012-20.942,0.618
			c-1.34,0.32-1.915,1.358-1.934,2.438c-0.506,0.239-0.957,0.584-1.226,1.156c-6.086,12.942-3.735,30.26-3.381,44.115
			c0.519,20.3-3.939,43.38,0.525,63.221c0.299,1.327,1.463,2.354,2.728,2.726c0.186,0.055,0.372,0.109,0.558,0.164
			c1.875,0.553,4.258-0.646,4.66-2.646l0.451-2.243c0.263-1.31-0.328-2.53-1.247-3.283c0.053-1.029,0.105-2.435,0.156-4.051
			c3.902,3.61,8.15,7.444,12.71,9.922c-2.45,0.18-4.901,0.36-7.353,0.512c-1.298,0.08-2.784,0.063-4.047,0.411
			c-0.168,0.046-2.547,1.434-1.597,1.598c-1.038-0.179-1.673,0.9-0.999,1.717c1.579,1.912,1.713,2.726,4.541,3.205
			c3.474,0.592,7.15,0.453,10.659,0.418c6.004-0.061,16.937,1.107,21.993-2.687c0.058-0.042,0.095-0.099,0.147-0.142
			c1.313,0.64,3.1-0.234,2.624-2.014C184.422,134.749,186.71,115.24,188.827,96.429z M151.004,54.798
			c0.007,0.004,0.009,0.008,0.013,0.011c11.637,6.887,20.33,17.325,31.279,24.985c-0.119,1.578-0.226,3.154-0.363,4.734
			c-4.56-3.715-9.52-7.071-14.079-10.685c-5.52-4.372-11.155-8.551-17.085-12.332C150.788,59.266,150.871,57.027,151.004,54.798z
			 M167.821,77.64c4.419,3.64,8.84,7.849,13.726,11.043c-0.287,2.981-0.591,5.969-0.915,8.979
			c-10.009-7.737-20.272-15.032-29.619-23.673c-0.138-3.126-0.216-6.258-0.245-9.386C156.681,68.641,162.282,73.078,167.821,77.64z
			 M178.401,122.253c-4.291-3.857-9.351-7.043-13.845-10.604c-4.541-3.597-8.8-7.52-12.902-11.604
			c0.086-3.36,0.112-6.723,0.034-10.086c8.343,8.239,17.487,16.464,27.343,22.873C178.75,115.926,178.516,119.076,178.401,122.253z
			 M178.493,132.023c-8.46-7.945-17.822-15.539-27.171-21.881c0.082-2.432,0.169-4.863,0.247-7.295
			c7.783,8.576,16.974,17.213,26.727,22.621C178.284,127.662,178.333,129.853,178.493,132.023z M151.61,87.252
			c-0.121-3.328-0.296-6.693-0.458-10.073c8.878,8.842,18.6,17.474,29.043,24.479c-0.124,1.129-0.246,2.251-0.372,3.387
			c-0.148,1.354-0.282,2.796-0.426,4.197C169.95,102.113,160.389,95.326,151.61,87.252z M168.588,149.808
			c-3.204-2.424-6.852-4.271-10.091-6.695c-2.619-1.961-5.134-4.053-7.684-6.1c0.095-3.647,0.176-7.693,0.229-10.9
			c2.852,5.822,7.062,10.588,12.208,14.557c3.308,2.55,7.229,5.807,11.296,8.293C172.502,149.238,170.474,149.562,168.588,149.808z
			 M181.262,148.488c-3.872-3.331-9.428-5.547-13.556-8.299c-6.263-4.174-11.744-9.338-15.186-16.095
			c-0.333-0.653-0.961-0.696-1.439-0.417c0.021-1.42,0.031-2.523,0.031-3.012c-0.007-2.523,0.045-5.045,0.116-7.566
			c9.85,7.328,18.09,17.139,27.917,24.426c0.631,3.811,1.636,7.506,3.213,10.959C182.004,148.461,181.624,148.494,181.262,148.488z
			 M182.532,76.728c-9.504-8.596-19.354-17.429-30.462-23.722c-0.354-0.201-0.687-0.164-0.959-0.016
			c0.211-2.742,0.533-5.464,1.017-8.155c0.034-0.186,0.044-0.387,0.058-0.587c1.538,0.055,3.067,0.121,4.593,0.205
			c-0.688,0.254-1.141,1.204-0.521,1.967c6.803,8.38,16.866,15.906,26.722,21.353C182.871,70.764,182.733,73.75,182.532,76.728z
			 M157.932,44.747c-0.112-0.114-0.229-0.181-0.348-0.242c4.571,0.272,9.102,0.719,13.68,1.597
			c3.729,0.716,8.468,2.566,12.315,1.602c-0.458,0.542-0.734,1.236-0.691,2.042c0.124,2.361,0.194,4.703,0.228,7.032
			c-4.165-2.97-8.87-5.4-13.078-7.814c-1.017-0.583-1.899,0.945-0.914,1.563c4.928,3.091,9.466,6.45,13.992,9.938
			c-0.003,0.877,0.014,1.76,0,2.636C174.461,57.343,165.471,52.437,157.932,44.747z"/>
    </g>
</svg>
