<svg
        viewBox="0 0 446.203 446.203"
        xmlns="http://www.w3.org/2000/svg"
        class="fill-current text-black inline-block"
        width="16" height="16"
        fill="blue"
>
    <g>
        <path d="M67.759,115.223c31.767,0,57.611-25.845,57.611-57.611S99.526,0,67.759,0S10.148,25.845,10.148,57.611
        S35.993,115.223,67.759,115.223z"/>
        <path d="M375.69,313.564c-0.403-0.144-0.815-0.283-1.221-0.426v-22.307c10.463-1.767,23.291-6.566,29.738-16.965
        c5.63-9.078,7.61-26.309,5.435-46.994c-2.143-20.361-7.822-40.027-15.584-53.973c-8.076-14.511-18.137-22.16-29.094-22.16
        c-10.665,0-20.549,7.672-28.584,22.109c-16.837,30.251-22.315,82.214-10.659,101.013c6.244,10.072,18.483,15.219,29.748,17.038
        v16.269c-33.437-9.33-73.491-14.871-116-16.004v-36.286c11.993-1.833,27.03-7.132,34.474-19.138
        c13.137-21.187,7.032-81.37-11.664-114.96c-9.128-16.4-20.448-25.067-32.735-25.067c-11.953,0-23.07,8.629-32.151,24.944
        c-8.885,15.963-15.475,38.448-18.08,61.675c-2.655,23.67-0.529,43.147,5.833,53.407c6.982,11.261,20.658,16.973,33.324,19.028
        v36.198c-41.53,0.311-81.122,4.798-115,12.907v-13.009c10.495-1.742,23.433-6.538,29.918-16.996
        c5.63-9.078,7.61-26.309,5.435-46.994c-2.143-20.361-7.822-40.027-15.584-53.973c-8.076-14.511-18.137-22.16-29.094-22.16
        c-10.665,0-20.55,7.672-28.585,22.109c-16.837,30.251-22.315,82.215-10.658,101.013c6.211,10.018,18.353,15.163,29.568,17.008
        v18.121c-4.803,1.446-9.466,2.968-13.956,4.575c-40.927,14.645-63.466,34.181-63.466,55.01s22.539,40.365,63.466,55.01
        c40.766,14.586,94.956,22.619,152.589,22.619s111.822-8.033,152.588-22.619c40.927-14.645,63.466-34.181,63.466-55.01
        S416.617,328.209,375.69,313.564z"/>
    </g>
</svg>
